<?xml version="1.0" standalone="no"?>
<!DOCTYPE svg PUBLIC "-//W3C//DTD SVG 20010904//EN"
 "http://www.w3.org/TR/2001/REC-SVG-20010904/DTD/svg10.dtd">
<svg version="1.0" xmlns="http://www.w3.org/2000/svg"
 width="512.000000pt" height="512.000000pt" viewBox="0 0 512.000000 512.000000"
 preserveAspectRatio="xMidYMid meet">
<metadata>
Created by potrace 1.14, written by Peter Selinger 2001-2017
</metadata>
<g transform="translate(0.000000,512.000000) scale(0.100000,-0.100000)"
fill="#000000" stroke="none">
<path d="M2435 4440 c-167 -23 -187 -30 -600 -219 -278 -128 -314 -147 -354
-189 l-44 -47 6 -178 c7 -206 16 -237 82 -274 79 -44 123 -32 434 119 113 54
208 95 212 91 4 -5 3 -30 -3 -58 -6 -32 -8 -188 -4 -425 3 -206 9 -591 12
-855 12 -891 25 -1296 45 -1330 3 -5 47 -78 98 -162 87 -142 94 -151 116 -143
18 7 26 5 37 -10 13 -19 17 -19 185 9 183 31 220 45 246 95 22 42 25 149 33
992 5 534 3 703 -6 709 -9 5 -10 99 -4 386 6 341 5 379 -9 379 -14 0 -15 49
-10 498 6 540 4 556 -48 594 -23 17 -47 20 -195 23 -93 2 -196 -1 -229 -5z"/>
</g>
</svg>
